<svg width="1474" height="433" viewBox="0 0 1474 433" fill="none" xmlns="http://www.w3.org/2000/svg">
<path d="M473.439 161.937H426.256L383.874 98.7818L376.254 109.429V161.937H337.213V6.50269H376.254V75.5032L425.943 6.50269H471.143L415.713 78.6349L473.439 161.937Z" fill="#154F84"/>
<path d="M610.397 114.336C610.397 122.06 608.935 128.846 606.012 134.691C603.09 140.537 599.158 145.374 594.217 149.201C588.371 153.794 581.934 157.065 574.905 159.014C567.946 160.962 559.073 161.937 548.286 161.937H486.07V6.50269H540.979C552.392 6.50269 561.021 6.95503 566.867 7.85973C572.782 8.69484 578.315 10.5042 583.465 13.2879C589.032 16.2804 593.173 20.2819 595.887 25.2926C598.67 30.3032 600.062 36.0793 600.062 42.621C600.062 50.2065 598.148 56.957 594.321 62.8723C590.563 68.7876 585.344 73.1371 578.663 75.9208V76.7559C588.266 78.7741 595.956 82.9148 601.732 89.1781C607.509 95.3718 610.397 103.758 610.397 114.336ZM560.395 50.4501C560.395 47.9448 559.734 45.3699 558.411 42.7254C557.159 40.0809 555.175 38.1671 552.461 36.984C549.886 35.8706 546.824 35.279 543.275 35.2094C539.796 35.0702 534.576 35.0006 527.617 35.0006H524.903V67.8829H529.809C536.49 67.8829 541.153 67.8133 543.797 67.6741C546.511 67.535 549.295 66.8042 552.148 65.482C555.28 64.0206 557.437 62.0024 558.62 59.4275C559.803 56.8526 560.395 53.8601 560.395 50.4501ZM570.207 113.605C570.207 108.803 569.233 105.045 567.284 102.331C565.336 99.6169 562.413 97.5639 558.516 96.1721C556.15 95.2674 552.879 94.7803 548.703 94.7107C544.597 94.5715 539.065 94.5019 532.106 94.5019H524.903V133.439H526.991C537.151 133.439 544.18 133.369 548.077 133.23C551.974 133.091 555.941 132.151 559.977 130.411C563.526 128.88 566.101 126.653 567.702 123.731C569.372 120.738 570.207 117.363 570.207 113.605Z" fill="#154F84"/>
<path d="M662.695 161.937V36.1489H616.764V6.50269H747.667V36.1489H701.736V161.937H662.695Z" fill="#154F84"/>
<path d="M826.585 165.173C805.707 165.173 789.631 160.127 778.357 150.036C767.153 139.946 761.551 125.192 761.551 105.776V6.50269H800.592V103.479C800.592 114.266 802.61 122.304 806.646 127.593C810.752 132.882 817.398 135.526 826.585 135.526C835.562 135.526 842.138 132.986 846.314 127.906C850.559 122.826 852.682 114.684 852.682 103.479V6.50269H891.723V105.671C891.723 124.809 886.225 139.528 875.229 149.828C864.303 160.058 848.089 165.173 826.585 165.173Z" fill="#154F84"/>
<path d="M470.412 340.092H432.832L372.914 231.738V340.092H337.213V184.658H385.127L434.711 273.702V184.658H470.412V340.092Z" fill="#154F84"/>
<path d="M564.466 309.507V285.08C558.272 285.706 553.262 286.263 549.434 286.75C545.606 287.168 541.848 288.038 538.16 289.36C534.959 290.473 532.454 292.178 530.644 294.475C528.904 296.702 528.034 299.694 528.034 303.452C528.034 308.95 529.496 312.743 532.419 314.83C535.411 316.849 539.796 317.858 545.572 317.858C548.773 317.858 552.044 317.127 555.384 315.666C558.725 314.204 561.752 312.151 564.466 309.507ZM564.466 327.67C561.961 329.758 559.699 331.637 557.681 333.307C555.732 334.977 553.088 336.648 549.747 338.318C546.476 339.918 543.275 341.136 540.143 341.971C537.081 342.806 532.767 343.224 527.199 343.224C516.83 343.224 508.201 339.744 501.311 332.785C494.491 325.826 491.081 317.057 491.081 306.479C491.081 297.78 492.821 290.752 496.3 285.393C499.78 280.034 504.791 275.789 511.332 272.658C517.944 269.456 525.842 267.229 535.028 265.977C544.215 264.724 554.097 263.75 564.675 263.054V262.428C564.675 255.956 562.274 251.502 557.472 249.066C552.74 246.561 545.606 245.308 536.072 245.308C531.758 245.308 526.712 246.108 520.936 247.709C515.16 249.24 509.523 251.223 504.025 253.659H500.894V225.37C504.512 224.326 510.358 223.108 518.431 221.716C526.503 220.255 534.646 219.524 542.858 219.524C563.039 219.524 577.723 222.899 586.909 229.65C596.165 236.331 600.793 246.561 600.793 260.34V340.092H564.466V327.67Z" fill="#154F84"/>
<path d="M737.541 222.865L695.473 340.092H655.597L613.842 222.865H652.256L676.266 300.425L699.962 222.865H737.541Z" fill="#154F84"/>
<path d="M788.17 340.092H751.634V222.865H788.17V340.092ZM789.214 206.162H750.59V177.664H789.214V206.162Z" fill="#154F84"/>
<path d="M886.19 303.139V250.005C884.381 249.17 882.154 248.474 879.509 247.918C876.865 247.361 874.22 247.083 871.576 247.083C862.807 247.083 856.196 249.936 851.742 255.642C847.358 261.279 845.166 269.178 845.166 279.338C845.166 284.419 845.479 288.733 846.105 292.283C846.801 295.762 848.054 298.859 849.863 301.573C851.603 304.218 853.865 306.236 856.648 307.628C859.502 308.95 863.12 309.611 867.505 309.611C870.776 309.611 873.977 309.054 877.108 307.941C880.31 306.827 883.337 305.227 886.19 303.139ZM922.726 326.626C922.726 337.483 921.16 346.704 918.029 354.289C914.897 361.875 910.617 367.79 905.189 372.035C899.761 376.35 893.254 379.447 885.668 381.326C878.083 383.274 869.662 384.249 860.406 384.249C852.612 384.249 845.2 383.727 838.172 382.683C831.212 381.708 825.158 380.56 820.008 379.238V349.905H824.288C826.097 350.601 828.22 351.366 830.656 352.201C833.161 353.037 835.666 353.802 838.172 354.498C841.164 355.263 844.087 355.89 846.94 356.377C849.794 356.864 852.716 357.108 855.709 357.108C861.903 357.108 867.052 356.447 871.158 355.124C875.334 353.872 878.465 352.062 880.553 349.696C882.641 347.26 884.102 344.372 884.938 341.032C885.773 337.761 886.19 333.62 886.19 328.61V326.418C882.084 330.036 877.317 332.959 871.889 335.186C866.53 337.344 860.998 338.422 855.291 338.422C840.12 338.422 828.394 333.481 820.112 323.599C811.901 313.717 807.795 298.685 807.795 278.503C807.795 269.317 809.047 261.071 811.553 253.763C814.128 246.456 817.677 240.228 822.2 235.078C826.515 230.137 831.734 226.344 837.858 223.7C843.983 220.986 850.35 219.628 856.962 219.628C862.946 219.628 868.305 220.394 873.037 221.925C877.77 223.456 882.084 225.509 885.981 228.084L887.338 222.865H922.726V326.626Z" fill="#154F84"/>
<path d="M1015.42 309.507V285.08C1009.23 285.706 1004.22 286.263 1000.39 286.75C996.563 287.168 992.805 288.038 989.117 289.36C985.916 290.473 983.41 292.178 981.601 294.475C979.861 296.702 978.991 299.694 978.991 303.452C978.991 308.95 980.453 312.743 983.376 314.83C986.368 316.849 990.752 317.858 996.528 317.858C999.73 317.858 1003 317.127 1006.34 315.666C1009.68 314.204 1012.71 312.151 1015.42 309.507ZM1015.42 327.67C1012.92 329.758 1010.66 331.637 1008.64 333.307C1006.69 334.977 1004.04 336.648 1000.7 338.318C997.433 339.918 994.232 341.136 991.1 341.971C988.038 342.806 983.724 343.224 978.156 343.224C967.787 343.224 959.158 339.744 952.268 332.785C945.448 325.826 942.038 317.057 942.038 306.479C942.038 297.78 943.778 290.752 947.257 285.393C950.737 280.034 955.748 275.789 962.289 272.658C968.9 269.456 976.799 267.229 985.985 265.977C995.171 264.724 1005.05 263.75 1015.63 263.054V262.428C1015.63 255.956 1013.23 251.502 1008.43 249.066C1003.7 246.561 996.563 245.308 987.029 245.308C982.714 245.308 977.669 246.108 971.893 247.709C966.117 249.24 960.48 251.223 954.982 253.659H951.85V225.37C955.469 224.326 961.315 223.108 969.388 221.716C977.46 220.255 985.603 219.524 993.814 219.524C1014 219.524 1028.68 222.899 1037.87 229.65C1047.12 236.331 1051.75 246.561 1051.75 260.34V340.092H1015.42V327.67Z" fill="#154F84"/>
<path d="M1123.67 342.389C1108.78 342.389 1097.92 339.327 1091.1 333.203C1084.35 327.079 1080.98 317.057 1080.98 303.139V248.335H1066.99V222.865H1080.98V189.356H1117.51V222.865H1152.69V248.335H1117.51V289.882C1117.51 293.988 1117.55 297.572 1117.62 300.634C1117.69 303.696 1118.25 306.445 1119.29 308.88C1120.26 311.316 1121.97 313.265 1124.4 314.726C1126.91 316.118 1130.53 316.814 1135.26 316.814C1137.21 316.814 1139.75 316.396 1142.88 315.561C1146.08 314.726 1148.31 313.961 1149.56 313.265H1152.69V339.049C1148.73 340.092 1144.52 340.893 1140.06 341.449C1135.61 342.076 1130.15 342.389 1123.67 342.389Z" fill="#154F84"/>
<path d="M1204.26 340.092H1167.73V222.865H1204.26V340.092ZM1205.3 206.162H1166.68V177.664H1205.3V206.162Z" fill="#154F84"/>
<path d="M1344.77 281.531C1344.77 300.808 1339.48 316.014 1328.9 327.148C1318.39 338.213 1303.5 343.746 1284.22 343.746C1265.08 343.746 1250.19 338.213 1239.54 327.148C1228.97 316.014 1223.68 300.808 1223.68 281.531C1223.68 262.045 1228.97 246.804 1239.54 235.809C1250.19 224.743 1265.08 219.211 1284.22 219.211C1303.43 219.211 1318.32 224.778 1328.9 235.913C1339.48 246.978 1344.77 262.184 1344.77 281.531ZM1307.29 281.739C1307.29 274.78 1306.7 269.004 1305.52 264.411C1304.4 259.748 1302.84 256.025 1300.82 253.241C1298.66 250.319 1296.23 248.3 1293.51 247.187C1290.8 246.004 1287.7 245.412 1284.22 245.412C1280.95 245.412 1277.99 245.934 1275.35 246.978C1272.7 247.952 1270.27 249.866 1268.04 252.72C1265.95 255.434 1264.28 259.157 1263.03 263.889C1261.78 268.621 1261.15 274.571 1261.15 281.739C1261.15 288.907 1261.74 294.718 1262.93 299.172C1264.11 303.557 1265.64 307.071 1267.52 309.715C1269.47 312.43 1271.9 314.413 1274.83 315.666C1277.75 316.918 1280.99 317.545 1284.54 317.545C1287.46 317.545 1290.42 316.918 1293.41 315.666C1296.47 314.413 1298.91 312.534 1300.72 310.029C1302.87 307.036 1304.51 303.452 1305.62 299.277C1306.74 295.032 1307.29 289.186 1307.29 281.739Z" fill="#154F84"/>
<path d="M1474 340.092H1437.26V281.948C1437.26 277.216 1437.05 272.518 1436.63 267.856C1436.28 263.124 1435.59 259.644 1434.54 257.417C1433.29 254.772 1431.48 252.894 1429.11 251.78C1426.75 250.597 1423.58 250.005 1419.61 250.005C1416.62 250.005 1413.59 250.562 1410.53 251.676C1407.47 252.789 1404.2 254.564 1400.72 256.999V340.092H1364.18V222.865H1400.72V235.809C1406.7 230.728 1412.52 226.762 1418.15 223.908C1423.86 221.055 1430.16 219.628 1437.05 219.628C1449.02 219.628 1458.17 223.421 1464.5 231.007C1470.83 238.523 1474 249.449 1474 263.785V340.092Z" fill="#154F84"/>
<path d="M190.938 240.047L292.39 351.149L293 0.903602L41.3279 241.844L190.938 240.047Z" fill="#1A5E9C"/>
</svg>
